REM DIRINDEX 1\2\6,1\2\7,1\2\8,1\3\9,1\3\10,1\3\11,1\4\12,1\4\13,1\4\14,1\5\15,1\5\16,1\5\17,1\5\18
REM DIRNAME cjc019,folder01,folder02,folder03,folder04,folder05,folder06,folder07,folder08,folder09,folder10,folder11,folder12,folder13,folder14,folder15,folder16,folder17
TITLE ""
FILE "2Q_j_1208-1221.mp3" MP3
  TRACK 01 AUDIO
    TITLE "6:cjc019_0086"
    INDEX 01 00:00:00
  TRACK 02 AUDIO
    TITLE "0:"
    INDEX 01 00:01:22
  TRACK 03 AUDIO
    TITLE "7:cjc019_0087"
    INDEX 01 00:02:04
  TRACK 04 AUDIO
    TITLE "0:"
    INDEX 01 00:07:31
  TRACK 05 AUDIO
    TITLE "8:cjc019_0088"
    INDEX 01 00:08:07
  TRACK 06 AUDIO
    TITLE "0:"
    INDEX 01 00:12:16
  TRACK 07 AUDIO
    TITLE "6:cjc019_0089"
    INDEX 01 00:13:10
  TRACK 08 AUDIO
    TITLE "0:"
    INDEX 01 00:14:23
  TRACK 09 AUDIO
    TITLE "7:cjc019_0090"
    INDEX 01 00:15:09
  TRACK 10 AUDIO
    TITLE "0:"
    INDEX 01 00:20:20
  TRACK 11 AUDIO
    TITLE "8:cjc019_0091"
    INDEX 01 00:21:00
  TRACK 12 AUDIO
    TITLE "0:"
    INDEX 01 00:23:46
  TRACK 13 AUDIO
    TITLE "6:cjc019_0092"
    INDEX 01 00:24:35
  TRACK 14 AUDIO
    TITLE "0:"
    INDEX 01 00:25:68
  TRACK 15 AUDIO
    TITLE "7:cjc019_0093"
    INDEX 01 00:26:52
  TRACK 16 AUDIO
    TITLE "0:"
    INDEX 01 00:27:73
  TRACK 17 AUDIO
    TITLE "8:cjc019_0094"
    INDEX 01 00:28:49
  TRACK 18 AUDIO
    TITLE "0:"
    INDEX 01 00:32:58
  TRACK 19 AUDIO
    TITLE "6:cjc019_0095"
    INDEX 01 00:33:42
  TRACK 20 AUDIO
    TITLE "0:"
    INDEX 01 00:34:57
  TRACK 21 AUDIO
    TITLE "7:cjc019_0096"
    INDEX 01 00:35:41
  TRACK 22 AUDIO
    TITLE "0:"
    INDEX 01 00:41:65
  TRACK 23 AUDIO
    TITLE "8:cjc019_0097"
    INDEX 01 00:42:39
  TRACK 24 AUDIO
    TITLE "0:"
    INDEX 01 00:44:61
  TRACK 25 AUDIO
    TITLE "6:cjc019_0098"
    INDEX 01 00:45:41
  TRACK 26 AUDIO
    TITLE "0:"
    INDEX 01 00:47:01
  TRACK 27 AUDIO
    TITLE "7:cjc019_0099"
    INDEX 01 00:47:54
  TRACK 28 AUDIO
    TITLE "0:"
    INDEX 01 00:52:51
  TRACK 29 AUDIO
    TITLE "8:cjc019_0100"
    INDEX 01 00:53:31
  TRACK 30 AUDIO
    TITLE "0:"
    INDEX 01 00:57:15
  TRACK 31 AUDIO
    TITLE "6:cjc019_0101"
    INDEX 01 00:57:68
  TRACK 32 AUDIO
    TITLE "0:"
    INDEX 01 00:59:14
  TRACK 33 AUDIO
    TITLE "7:cjc019_0102"
    INDEX 01 01:00:13
  TRACK 34 AUDIO
    TITLE "0:"
    INDEX 01 01:02:28
  TRACK 35 AUDIO
    TITLE "8:cjc019_0103"
    INDEX 01 01:03:10
  TRACK 36 AUDIO
    TITLE "0:"
    INDEX 01 01:07:37
  TRACK 37 AUDIO
    TITLE "6:cjc019_0104"
    INDEX 01 01:08:19
  TRACK 38 AUDIO
    TITLE "0:"
    INDEX 01 01:09:57
  TRACK 39 AUDIO
    TITLE "7:cjc019_0105"
    INDEX 01 01:10:49
  TRACK 40 AUDIO
    TITLE "0:"
    INDEX 01 01:15:23
  TRACK 41 AUDIO
    TITLE "8:cjc019_0106"
    INDEX 01 01:16:05
  TRACK 42 AUDIO
    TITLE "0:"
    INDEX 01 01:20:69
  TRACK 43 AUDIO
    TITLE "6:cjc019_0107"
    INDEX 01 01:21:49
  TRACK 44 AUDIO
    TITLE "0:"
    INDEX 01 01:22:50
  TRACK 45 AUDIO
    TITLE "7:cjc019_0108"
    INDEX 01 01:23:34
  TRACK 46 AUDIO
    TITLE "0:"
    INDEX 01 01:25:37
  TRACK 47 AUDIO
    TITLE "8:cjc019_0109"
    INDEX 01 01:26:19
  TRACK 48 AUDIO
    TITLE "0:"
    INDEX 01 01:30:13
  TRACK 49 AUDIO
    TITLE "6:cjc019_0110"
    INDEX 01 01:30:67
  TRACK 50 AUDIO
    TITLE "0:"
    INDEX 01 01:32:10
  TRACK 51 AUDIO
    TITLE "7:cjc019_0111"
    INDEX 01 01:33:09
  TRACK 52 AUDIO
    TITLE "0:"
    INDEX 01 01:34:54
  TRACK 53 AUDIO
    TITLE "8:cjc019_0112"
    INDEX 01 01:35:39
  TRACK 54 AUDIO
    TITLE "0:"
    INDEX 01 01:38:06
  TRACK 55 AUDIO
    TITLE "6:cjc019_0113"
    INDEX 01 01:38:67
  TRACK 56 AUDIO
    TITLE "0:"
    INDEX 01 01:40:01
  TRACK 57 AUDIO
    TITLE "7:cjc019_0114"
    INDEX 01 01:40:58
  TRACK 58 AUDIO
    TITLE "0:"
    INDEX 01 01:42:04
  TRACK 59 AUDIO
    TITLE "8:cjc019_0115"
    INDEX 01 01:42:63
  TRACK 60 AUDIO
    TITLE "0:"
    INDEX 01 01:45:55
  TRACK 61 AUDIO
    TITLE "6:cjc019_0116"
    INDEX 01 01:46:33
  TRACK 62 AUDIO
    TITLE "0:"
    INDEX 01 01:47:72
  TRACK 63 AUDIO
    TITLE "7:cjc019_0117"
    INDEX 01 01:48:58
  TRACK 64 AUDIO
    TITLE "0:"
    INDEX 01 01:50:53
  TRACK 65 AUDIO
    TITLE "8:cjc019_0118"
    INDEX 01 01:51:34
  TRACK 66 AUDIO
    TITLE "0:"
    INDEX 01 01:56:28
  TRACK 67 AUDIO
    TITLE "6:cjc019_0119"
    INDEX 01 01:57:08
  TRACK 68 AUDIO
    TITLE "0:"
    INDEX 01 01:58:05
  TRACK 69 AUDIO
    TITLE "7:cjc019_0120"
    INDEX 01 01:58:74
  TRACK 70 AUDIO
    TITLE "0:"
    INDEX 01 02:05:27
  TRACK 71 AUDIO
    TITLE "8:cjc019_0121"
    INDEX 01 02:06:06
  TRACK 72 AUDIO
    TITLE "0:"
    INDEX 01 02:09:34
  TRACK 73 AUDIO
    TITLE "6:cjc019_0122"
    INDEX 01 02:10:12
  TRACK 74 AUDIO
    TITLE "0:"
    INDEX 01 02:11:37
  TRACK 75 AUDIO
    TITLE "7:cjc019_0123"
    INDEX 01 02:12:19
  TRACK 76 AUDIO
    TITLE "0:"
    INDEX 01 02:13:38
  TRACK 77 AUDIO
    TITLE "8:cjc019_0124"
    INDEX 01 02:14:18
  TRACK 78 AUDIO
    TITLE "0:"
    INDEX 01 02:17:08
  TRACK 79 AUDIO
    TITLE "6:cjc019_0125"
    INDEX 01 02:17:63
  TRACK 80 AUDIO
    TITLE "0:"
    INDEX 01 02:19:21
  TRACK 81 AUDIO
    TITLE "7:cjc019_0126"
    INDEX 01 02:20:03
  TRACK 82 AUDIO
    TITLE "0:"
    INDEX 01 02:21:71
  TRACK 83 AUDIO
    TITLE "8:cjc019_0127"
    INDEX 01 02:22:58
  TRACK 84 AUDIO
    TITLE "0:"
    INDEX 01 02:27:13
